<mxfile host="app.diagrams.net" modified="2020-12-08T01:00:17.726Z" agent="5.0 (Windows NT 10.0; Win64; x64) AppleWebKit/537.36 (KHTML, like Gecko) Chrome/86.0.4240.198 Safari/537.36" etag="jBGWepATvMPKwsP6194B" version="13.10.9" type="github">
  <diagram id="C5RBs43oDa-KdzZeNtuy" name="Page-1">
    <mxGraphModel dx="1422" dy="706" grid="1" gridSize="10" guides="1" tooltips="1" connect="1" arrows="1" fold="1" page="1" pageScale="1" pageWidth="827" pageHeight="1169" math="0" shadow="0">
      <root>
        <mxCell id="WIyWlLk6GJQsqaUBKTNV-0" />
        <mxCell id="WIyWlLk6GJQsqaUBKTNV-1" parent="WIyWlLk6GJQsqaUBKTNV-0" />
        <mxCell id="J_tYa9_XuMW0KtjzSe_e-5" value="&lt;b&gt;RegisterAndRecognizeActivity&lt;/b&gt;&lt;p style=&quot;margin: 4px 0px 0px&quot;&gt;&lt;/p&gt;" style="html=1;" parent="WIyWlLk6GJQsqaUBKTNV-1" vertex="1">
          <mxGeometry x="458" y="210" width="220" height="70" as="geometry" />
        </mxCell>
        <mxCell id="J_tYa9_XuMW0KtjzSe_e-6" value="FaceHelper" style="swimlane;fontStyle=1;align=center;verticalAlign=top;childLayout=stackLayout;horizontal=1;startSize=26;horizontalStack=0;resizeParent=1;resizeParentMax=0;resizeLast=0;collapsible=1;marginBottom=0;" parent="WIyWlLk6GJQsqaUBKTNV-1" vertex="1">
          <mxGeometry x="200" y="360" width="736" height="372" as="geometry" />
        </mxCell>
        <mxCell id="J_tYa9_XuMW0KtjzSe_e-7" value="FaceEngine ftEngine" style="text;strokeColor=none;fillColor=none;align=left;verticalAlign=top;spacingLeft=4;spacingRight=4;overflow=hidden;rotatable=0;points=[[0,0.5],[1,0.5]];portConstraint=eastwest;" parent="J_tYa9_XuMW0KtjzSe_e-6" vertex="1">
          <mxGeometry y="26" width="736" height="26" as="geometry" />
        </mxCell>
        <mxCell id="J_tYa9_XuMW0KtjzSe_e-10" value="FaceEngine frEngine" style="text;strokeColor=none;fillColor=none;align=left;verticalAlign=top;spacingLeft=4;spacingRight=4;overflow=hidden;rotatable=0;points=[[0,0.5],[1,0.5]];portConstraint=eastwest;" parent="J_tYa9_XuMW0KtjzSe_e-6" vertex="1">
          <mxGeometry y="52" width="736" height="26" as="geometry" />
        </mxCell>
        <mxCell id="J_tYa9_XuMW0KtjzSe_e-11" value="FaceEngine flEngine" style="text;strokeColor=none;fillColor=none;align=left;verticalAlign=top;spacingLeft=4;spacingRight=4;overflow=hidden;rotatable=0;points=[[0,0.5],[1,0.5]];portConstraint=eastwest;" parent="J_tYa9_XuMW0KtjzSe_e-6" vertex="1">
          <mxGeometry y="78" width="736" height="26" as="geometry" />
        </mxCell>
        <mxCell id="J_tYa9_XuMW0KtjzSe_e-12" value="Camera.Size previewSize" style="text;strokeColor=none;fillColor=none;align=left;verticalAlign=top;spacingLeft=4;spacingRight=4;overflow=hidden;rotatable=0;points=[[0,0.5],[1,0.5]];portConstraint=eastwest;" parent="J_tYa9_XuMW0KtjzSe_e-6" vertex="1">
          <mxGeometry y="104" width="736" height="26" as="geometry" />
        </mxCell>
        <mxCell id="J_tYa9_XuMW0KtjzSe_e-14" value="List&lt;FaceInfo&gt; faceInfoList" style="text;strokeColor=none;fillColor=none;align=left;verticalAlign=top;spacingLeft=4;spacingRight=4;overflow=hidden;rotatable=0;points=[[0,0.5],[1,0.5]];portConstraint=eastwest;" parent="J_tYa9_XuMW0KtjzSe_e-6" vertex="1">
          <mxGeometry y="130" width="736" height="26" as="geometry" />
        </mxCell>
        <mxCell id="J_tYa9_XuMW0KtjzSe_e-15" value="ExecutorService frExecutor" style="text;strokeColor=none;fillColor=none;align=left;verticalAlign=top;spacingLeft=4;spacingRight=4;overflow=hidden;rotatable=0;points=[[0,0.5],[1,0.5]];portConstraint=eastwest;" parent="J_tYa9_XuMW0KtjzSe_e-6" vertex="1">
          <mxGeometry y="156" width="736" height="26" as="geometry" />
        </mxCell>
        <mxCell id="J_tYa9_XuMW0KtjzSe_e-16" value="ExecutorService flExecutor" style="text;strokeColor=none;fillColor=none;align=left;verticalAlign=top;spacingLeft=4;spacingRight=4;overflow=hidden;rotatable=0;points=[[0,0.5],[1,0.5]];portConstraint=eastwest;" parent="J_tYa9_XuMW0KtjzSe_e-6" vertex="1">
          <mxGeometry y="182" width="736" height="28" as="geometry" />
        </mxCell>
        <mxCell id="J_tYa9_XuMW0KtjzSe_e-8" value="" style="line;strokeWidth=1;fillColor=none;align=left;verticalAlign=middle;spacingTop=-1;spacingLeft=3;spacingRight=3;rotatable=0;labelPosition=right;points=[];portConstraint=eastwest;" parent="J_tYa9_XuMW0KtjzSe_e-6" vertex="1">
          <mxGeometry y="210" width="736" height="8" as="geometry" />
        </mxCell>
        <mxCell id="J_tYa9_XuMW0KtjzSe_e-9" value="void requestFaceLiveness(byte[] nv21, FaceInfo faceInfo, int width, int height, int format, Integer trackId, LivenessType livenessType)" style="text;strokeColor=none;fillColor=none;align=left;verticalAlign=top;spacingLeft=4;spacingRight=4;overflow=hidden;rotatable=0;points=[[0,0.5],[1,0.5]];portConstraint=eastwest;" parent="J_tYa9_XuMW0KtjzSe_e-6" vertex="1">
          <mxGeometry y="218" width="736" height="26" as="geometry" />
        </mxCell>
        <mxCell id="J_tYa9_XuMW0KtjzSe_e-22" value="void requestFaceFeature(byte[] nv21, FaceInfo faceInfo, int width, int height, int format, Integer trackId)" style="text;strokeColor=none;fillColor=none;align=left;verticalAlign=top;spacingLeft=4;spacingRight=4;overflow=hidden;rotatable=0;points=[[0,0.5],[1,0.5]];portConstraint=eastwest;" parent="J_tYa9_XuMW0KtjzSe_e-6" vertex="1">
          <mxGeometry y="244" width="736" height="26" as="geometry" />
        </mxCell>
        <mxCell id="J_tYa9_XuMW0KtjzSe_e-23" value="void release()" style="text;strokeColor=none;fillColor=none;align=left;verticalAlign=top;spacingLeft=4;spacingRight=4;overflow=hidden;rotatable=0;points=[[0,0.5],[1,0.5]];portConstraint=eastwest;" parent="J_tYa9_XuMW0KtjzSe_e-6" vertex="1">
          <mxGeometry y="270" width="736" height="26" as="geometry" />
        </mxCell>
        <mxCell id="J_tYa9_XuMW0KtjzSe_e-24" value="List&lt;FacePreviewInfo&gt; onPreviewFrame(byte[] nv21)" style="text;strokeColor=none;fillColor=none;align=left;verticalAlign=top;spacingLeft=4;spacingRight=4;overflow=hidden;rotatable=0;points=[[0,0.5],[1,0.5]];portConstraint=eastwest;" parent="J_tYa9_XuMW0KtjzSe_e-6" vertex="1">
          <mxGeometry y="296" width="736" height="26" as="geometry" />
        </mxCell>
        <mxCell id="J_tYa9_XuMW0KtjzSe_e-68" value="void refreshTrackId(List&lt;FaceInfo&gt; ftFaceList)" style="text;strokeColor=none;fillColor=none;align=left;verticalAlign=top;spacingLeft=4;spacingRight=4;overflow=hidden;rotatable=0;points=[[0,0.5],[1,0.5]];portConstraint=eastwest;" parent="J_tYa9_XuMW0KtjzSe_e-6" vertex="1">
          <mxGeometry y="322" width="736" height="26" as="geometry" />
        </mxCell>
        <mxCell id="J_tYa9_XuMW0KtjzSe_e-69" value="int getTrackedFaceCount() " style="text;strokeColor=none;fillColor=none;align=left;verticalAlign=top;spacingLeft=4;spacingRight=4;overflow=hidden;rotatable=0;points=[[0,0.5],[1,0.5]];portConstraint=eastwest;" parent="J_tYa9_XuMW0KtjzSe_e-6" vertex="1">
          <mxGeometry y="348" width="736" height="24" as="geometry" />
        </mxCell>
        <mxCell id="J_tYa9_XuMW0KtjzSe_e-13" value="人脸操作辅助类" style="shape=note2;boundedLbl=1;whiteSpace=wrap;html=1;size=25;verticalAlign=top;align=center;" parent="WIyWlLk6GJQsqaUBKTNV-1" vertex="1">
          <mxGeometry x="199" y="260" width="120" height="60" as="geometry" />
        </mxCell>
        <mxCell id="J_tYa9_XuMW0KtjzSe_e-25" value="FaceRecognizeRunnable" style="swimlane;fontStyle=1;align=center;verticalAlign=top;childLayout=stackLayout;horizontal=1;startSize=26;horizontalStack=0;resizeParent=1;resizeParentMax=0;resizeLast=0;collapsible=1;marginBottom=0;" parent="WIyWlLk6GJQsqaUBKTNV-1" vertex="1">
          <mxGeometry x="200" y="915" width="260" height="216" as="geometry" />
        </mxCell>
        <mxCell id="J_tYa9_XuMW0KtjzSe_e-26" value="FaceInfo faceInfo" style="text;strokeColor=none;fillColor=none;align=left;verticalAlign=top;spacingLeft=4;spacingRight=4;overflow=hidden;rotatable=0;points=[[0,0.5],[1,0.5]];portConstraint=eastwest;" parent="J_tYa9_XuMW0KtjzSe_e-25" vertex="1">
          <mxGeometry y="26" width="260" height="26" as="geometry" />
        </mxCell>
        <mxCell id="J_tYa9_XuMW0KtjzSe_e-30" value="int width" style="text;strokeColor=none;fillColor=none;align=left;verticalAlign=top;spacingLeft=4;spacingRight=4;overflow=hidden;rotatable=0;points=[[0,0.5],[1,0.5]];portConstraint=eastwest;" parent="J_tYa9_XuMW0KtjzSe_e-25" vertex="1">
          <mxGeometry y="52" width="260" height="26" as="geometry" />
        </mxCell>
        <mxCell id="J_tYa9_XuMW0KtjzSe_e-31" value="int height" style="text;strokeColor=none;fillColor=none;align=left;verticalAlign=top;spacingLeft=4;spacingRight=4;overflow=hidden;rotatable=0;points=[[0,0.5],[1,0.5]];portConstraint=eastwest;" parent="J_tYa9_XuMW0KtjzSe_e-25" vertex="1">
          <mxGeometry y="78" width="260" height="26" as="geometry" />
        </mxCell>
        <mxCell id="J_tYa9_XuMW0KtjzSe_e-32" value="int format" style="text;strokeColor=none;fillColor=none;align=left;verticalAlign=top;spacingLeft=4;spacingRight=4;overflow=hidden;rotatable=0;points=[[0,0.5],[1,0.5]];portConstraint=eastwest;" parent="J_tYa9_XuMW0KtjzSe_e-25" vertex="1">
          <mxGeometry y="104" width="260" height="26" as="geometry" />
        </mxCell>
        <mxCell id="J_tYa9_XuMW0KtjzSe_e-33" value="Integer trackId" style="text;strokeColor=none;fillColor=none;align=left;verticalAlign=top;spacingLeft=4;spacingRight=4;overflow=hidden;rotatable=0;points=[[0,0.5],[1,0.5]];portConstraint=eastwest;" parent="J_tYa9_XuMW0KtjzSe_e-25" vertex="1">
          <mxGeometry y="130" width="260" height="26" as="geometry" />
        </mxCell>
        <mxCell id="J_tYa9_XuMW0KtjzSe_e-34" value="byte[] nv21Data" style="text;strokeColor=none;fillColor=none;align=left;verticalAlign=top;spacingLeft=4;spacingRight=4;overflow=hidden;rotatable=0;points=[[0,0.5],[1,0.5]];portConstraint=eastwest;" parent="J_tYa9_XuMW0KtjzSe_e-25" vertex="1">
          <mxGeometry y="156" width="260" height="26" as="geometry" />
        </mxCell>
        <mxCell id="J_tYa9_XuMW0KtjzSe_e-27" value="" style="line;strokeWidth=1;fillColor=none;align=left;verticalAlign=middle;spacingTop=-1;spacingLeft=3;spacingRight=3;rotatable=0;labelPosition=right;points=[];portConstraint=eastwest;" parent="J_tYa9_XuMW0KtjzSe_e-25" vertex="1">
          <mxGeometry y="182" width="260" height="8" as="geometry" />
        </mxCell>
        <mxCell id="J_tYa9_XuMW0KtjzSe_e-28" value="void run()" style="text;strokeColor=none;fillColor=none;align=left;verticalAlign=top;spacingLeft=4;spacingRight=4;overflow=hidden;rotatable=0;points=[[0,0.5],[1,0.5]];portConstraint=eastwest;" parent="J_tYa9_XuMW0KtjzSe_e-25" vertex="1">
          <mxGeometry y="190" width="260" height="26" as="geometry" />
        </mxCell>
        <mxCell id="J_tYa9_XuMW0KtjzSe_e-29" value="人脸特征提取线程" style="shape=note2;boundedLbl=1;whiteSpace=wrap;html=1;size=25;verticalAlign=top;align=center;" parent="WIyWlLk6GJQsqaUBKTNV-1" vertex="1">
          <mxGeometry x="200" y="820" width="120" height="60" as="geometry" />
        </mxCell>
        <mxCell id="J_tYa9_XuMW0KtjzSe_e-52" value="" style="endArrow=none;dashed=1;html=1;entryX=0.5;entryY=1;entryDx=0;entryDy=0;entryPerimeter=0;" parent="WIyWlLk6GJQsqaUBKTNV-1" target="J_tYa9_XuMW0KtjzSe_e-29" edge="1">
          <mxGeometry width="50" height="50" relative="1" as="geometry">
            <mxPoint x="260" y="915" as="sourcePoint" />
            <mxPoint x="290" y="895" as="targetPoint" />
          </mxGeometry>
        </mxCell>
        <mxCell id="J_tYa9_XuMW0KtjzSe_e-54" value="" style="endArrow=open;html=1;endSize=12;startArrow=diamondThin;startSize=14;startFill=1;edgeStyle=orthogonalEdgeStyle;align=left;verticalAlign=bottom;exitX=0.5;exitY=1;exitDx=0;exitDy=0;" parent="WIyWlLk6GJQsqaUBKTNV-1" source="J_tYa9_XuMW0KtjzSe_e-5" target="J_tYa9_XuMW0KtjzSe_e-6" edge="1">
          <mxGeometry x="-1" y="3" relative="1" as="geometry">
            <mxPoint x="570" y="260" as="sourcePoint" />
            <mxPoint x="730" y="260" as="targetPoint" />
          </mxGeometry>
        </mxCell>
        <mxCell id="J_tYa9_XuMW0KtjzSe_e-55" value="FaceLivenessDetectRunnable" style="swimlane;fontStyle=1;align=center;verticalAlign=top;childLayout=stackLayout;horizontal=1;startSize=26;horizontalStack=0;resizeParent=1;resizeParentMax=0;resizeLast=0;collapsible=1;marginBottom=0;" parent="WIyWlLk6GJQsqaUBKTNV-1" vertex="1">
          <mxGeometry x="610" y="915" width="390" height="242" as="geometry" />
        </mxCell>
        <mxCell id="J_tYa9_XuMW0KtjzSe_e-56" value="FaceInfo faceInfo" style="text;strokeColor=none;fillColor=none;align=left;verticalAlign=top;spacingLeft=4;spacingRight=4;overflow=hidden;rotatable=0;points=[[0,0.5],[1,0.5]];portConstraint=eastwest;" parent="J_tYa9_XuMW0KtjzSe_e-55" vertex="1">
          <mxGeometry y="26" width="390" height="26" as="geometry" />
        </mxCell>
        <mxCell id="J_tYa9_XuMW0KtjzSe_e-57" value="int width" style="text;strokeColor=none;fillColor=none;align=left;verticalAlign=top;spacingLeft=4;spacingRight=4;overflow=hidden;rotatable=0;points=[[0,0.5],[1,0.5]];portConstraint=eastwest;" parent="J_tYa9_XuMW0KtjzSe_e-55" vertex="1">
          <mxGeometry y="52" width="390" height="26" as="geometry" />
        </mxCell>
        <mxCell id="J_tYa9_XuMW0KtjzSe_e-58" value="int height" style="text;strokeColor=none;fillColor=none;align=left;verticalAlign=top;spacingLeft=4;spacingRight=4;overflow=hidden;rotatable=0;points=[[0,0.5],[1,0.5]];portConstraint=eastwest;" parent="J_tYa9_XuMW0KtjzSe_e-55" vertex="1">
          <mxGeometry y="78" width="390" height="26" as="geometry" />
        </mxCell>
        <mxCell id="J_tYa9_XuMW0KtjzSe_e-59" value="int format" style="text;strokeColor=none;fillColor=none;align=left;verticalAlign=top;spacingLeft=4;spacingRight=4;overflow=hidden;rotatable=0;points=[[0,0.5],[1,0.5]];portConstraint=eastwest;" parent="J_tYa9_XuMW0KtjzSe_e-55" vertex="1">
          <mxGeometry y="104" width="390" height="26" as="geometry" />
        </mxCell>
        <mxCell id="J_tYa9_XuMW0KtjzSe_e-60" value="Integer trackId" style="text;strokeColor=none;fillColor=none;align=left;verticalAlign=top;spacingLeft=4;spacingRight=4;overflow=hidden;rotatable=0;points=[[0,0.5],[1,0.5]];portConstraint=eastwest;" parent="J_tYa9_XuMW0KtjzSe_e-55" vertex="1">
          <mxGeometry y="130" width="390" height="26" as="geometry" />
        </mxCell>
        <mxCell id="J_tYa9_XuMW0KtjzSe_e-61" value="byte[] nv21Data" style="text;strokeColor=none;fillColor=none;align=left;verticalAlign=top;spacingLeft=4;spacingRight=4;overflow=hidden;rotatable=0;points=[[0,0.5],[1,0.5]];portConstraint=eastwest;" parent="J_tYa9_XuMW0KtjzSe_e-55" vertex="1">
          <mxGeometry y="156" width="390" height="26" as="geometry" />
        </mxCell>
        <mxCell id="J_tYa9_XuMW0KtjzSe_e-67" value="LivenessType livenessType" style="text;strokeColor=none;fillColor=none;align=left;verticalAlign=top;spacingLeft=4;spacingRight=4;overflow=hidden;rotatable=0;points=[[0,0.5],[1,0.5]];portConstraint=eastwest;" parent="J_tYa9_XuMW0KtjzSe_e-55" vertex="1">
          <mxGeometry y="182" width="390" height="26" as="geometry" />
        </mxCell>
        <mxCell id="J_tYa9_XuMW0KtjzSe_e-62" value="" style="line;strokeWidth=1;fillColor=none;align=left;verticalAlign=middle;spacingTop=-1;spacingLeft=3;spacingRight=3;rotatable=0;labelPosition=right;points=[];portConstraint=eastwest;" parent="J_tYa9_XuMW0KtjzSe_e-55" vertex="1">
          <mxGeometry y="208" width="390" height="8" as="geometry" />
        </mxCell>
        <mxCell id="J_tYa9_XuMW0KtjzSe_e-63" value="void run()" style="text;strokeColor=none;fillColor=none;align=left;verticalAlign=top;spacingLeft=4;spacingRight=4;overflow=hidden;rotatable=0;points=[[0,0.5],[1,0.5]];portConstraint=eastwest;" parent="J_tYa9_XuMW0KtjzSe_e-55" vertex="1">
          <mxGeometry y="216" width="390" height="26" as="geometry" />
        </mxCell>
        <mxCell id="J_tYa9_XuMW0KtjzSe_e-64" value="" style="ellipse;fillColor=#ffffff;strokeColor=#000000;verticalAlign=bottom;" parent="WIyWlLk6GJQsqaUBKTNV-1" vertex="1">
          <mxGeometry x="888" y="850" width="30" height="30" as="geometry" />
        </mxCell>
        <mxCell id="J_tYa9_XuMW0KtjzSe_e-65" value="" style="endArrow=none;html=1;entryX=0.5;entryY=1;entryDx=0;entryDy=0;exitX=0.75;exitY=0;exitDx=0;exitDy=0;" parent="WIyWlLk6GJQsqaUBKTNV-1" source="J_tYa9_XuMW0KtjzSe_e-55" target="J_tYa9_XuMW0KtjzSe_e-64" edge="1">
          <mxGeometry width="50" height="50" relative="1" as="geometry">
            <mxPoint x="902.5" y="915" as="sourcePoint" />
            <mxPoint x="1000" y="885" as="targetPoint" />
          </mxGeometry>
        </mxCell>
        <mxCell id="J_tYa9_XuMW0KtjzSe_e-66" value="&lt;span&gt;Runnable&lt;/span&gt;" style="text;html=1;strokeColor=none;fillColor=none;align=center;verticalAlign=middle;whiteSpace=wrap;rounded=0;" parent="WIyWlLk6GJQsqaUBKTNV-1" vertex="1">
          <mxGeometry x="883" y="880" width="40" height="20" as="geometry" />
        </mxCell>
        <mxCell id="J_tYa9_XuMW0KtjzSe_e-71" value="活体检测的线程" style="shape=note2;boundedLbl=1;whiteSpace=wrap;html=1;size=25;verticalAlign=top;align=center;" parent="WIyWlLk6GJQsqaUBKTNV-1" vertex="1">
          <mxGeometry x="610" y="820" width="120" height="60" as="geometry" />
        </mxCell>
        <mxCell id="J_tYa9_XuMW0KtjzSe_e-73" value="" style="endArrow=none;dashed=1;html=1;entryX=0.5;entryY=1;entryDx=0;entryDy=0;entryPerimeter=0;exitX=0.151;exitY=0.004;exitDx=0;exitDy=0;exitPerimeter=0;" parent="WIyWlLk6GJQsqaUBKTNV-1" source="J_tYa9_XuMW0KtjzSe_e-55" target="J_tYa9_XuMW0KtjzSe_e-71" edge="1">
          <mxGeometry width="50" height="50" relative="1" as="geometry">
            <mxPoint x="203.05999999999995" y="925" as="sourcePoint" />
            <mxPoint x="203" y="880" as="targetPoint" />
          </mxGeometry>
        </mxCell>
        <mxCell id="J_tYa9_XuMW0KtjzSe_e-75" value="Builder" style="swimlane;fontStyle=0;childLayout=stackLayout;horizontal=1;startSize=26;fillColor=none;horizontalStack=0;resizeParent=1;resizeParentMax=0;resizeLast=0;collapsible=1;marginBottom=0;" parent="WIyWlLk6GJQsqaUBKTNV-1" vertex="1">
          <mxGeometry x="200" y="1250" width="339" height="268" as="geometry" />
        </mxCell>
        <mxCell id="J_tYa9_XuMW0KtjzSe_e-76" value="FaceEngine ftEngine" style="text;strokeColor=none;fillColor=none;align=left;verticalAlign=top;spacingLeft=4;spacingRight=4;overflow=hidden;rotatable=0;points=[[0,0.5],[1,0.5]];portConstraint=eastwest;" parent="J_tYa9_XuMW0KtjzSe_e-75" vertex="1">
          <mxGeometry y="26" width="339" height="26" as="geometry" />
        </mxCell>
        <mxCell id="J_tYa9_XuMW0KtjzSe_e-77" value="FaceEngine frEngine" style="text;strokeColor=none;fillColor=none;align=left;verticalAlign=top;spacingLeft=4;spacingRight=4;overflow=hidden;rotatable=0;points=[[0,0.5],[1,0.5]];portConstraint=eastwest;" parent="J_tYa9_XuMW0KtjzSe_e-75" vertex="1">
          <mxGeometry y="52" width="339" height="26" as="geometry" />
        </mxCell>
        <mxCell id="J_tYa9_XuMW0KtjzSe_e-78" value="FaceEngine flEngine" style="text;strokeColor=none;fillColor=none;align=left;verticalAlign=top;spacingLeft=4;spacingRight=4;overflow=hidden;rotatable=0;points=[[0,0.5],[1,0.5]];portConstraint=eastwest;" parent="J_tYa9_XuMW0KtjzSe_e-75" vertex="1">
          <mxGeometry y="78" width="339" height="26" as="geometry" />
        </mxCell>
        <mxCell id="J_tYa9_XuMW0KtjzSe_e-79" value="Camera.Size previewSize" style="text;strokeColor=none;fillColor=none;align=left;verticalAlign=top;spacingLeft=4;spacingRight=4;overflow=hidden;rotatable=0;points=[[0,0.5],[1,0.5]];portConstraint=eastwest;" parent="J_tYa9_XuMW0KtjzSe_e-75" vertex="1">
          <mxGeometry y="104" width="339" height="26" as="geometry" />
        </mxCell>
        <mxCell id="J_tYa9_XuMW0KtjzSe_e-80" value="FaceListener faceListener" style="text;strokeColor=none;fillColor=none;align=left;verticalAlign=top;spacingLeft=4;spacingRight=4;overflow=hidden;rotatable=0;points=[[0,0.5],[1,0.5]];portConstraint=eastwest;" parent="J_tYa9_XuMW0KtjzSe_e-75" vertex="1">
          <mxGeometry y="130" width="339" height="26" as="geometry" />
        </mxCell>
        <mxCell id="J_tYa9_XuMW0KtjzSe_e-81" value="int frQueueSize" style="text;strokeColor=none;fillColor=none;align=left;verticalAlign=top;spacingLeft=4;spacingRight=4;overflow=hidden;rotatable=0;points=[[0,0.5],[1,0.5]];portConstraint=eastwest;" parent="J_tYa9_XuMW0KtjzSe_e-75" vertex="1">
          <mxGeometry y="156" width="339" height="26" as="geometry" />
        </mxCell>
        <mxCell id="J_tYa9_XuMW0KtjzSe_e-82" value="int flQueueSize" style="text;strokeColor=none;fillColor=none;align=left;verticalAlign=top;spacingLeft=4;spacingRight=4;overflow=hidden;rotatable=0;points=[[0,0.5],[1,0.5]];portConstraint=eastwest;" parent="J_tYa9_XuMW0KtjzSe_e-75" vertex="1">
          <mxGeometry y="182" width="339" height="26" as="geometry" />
        </mxCell>
        <mxCell id="J_tYa9_XuMW0KtjzSe_e-83" value="int trackedFaceCount" style="text;strokeColor=none;fillColor=none;align=left;verticalAlign=top;spacingLeft=4;spacingRight=4;overflow=hidden;rotatable=0;points=[[0,0.5],[1,0.5]];portConstraint=eastwest;" parent="J_tYa9_XuMW0KtjzSe_e-75" vertex="1">
          <mxGeometry y="208" width="339" height="26" as="geometry" />
        </mxCell>
        <mxCell id="J_tYa9_XuMW0KtjzSe_e-87" value="" style="line;strokeWidth=1;fillColor=none;align=left;verticalAlign=middle;spacingTop=-1;spacingLeft=3;spacingRight=3;rotatable=0;labelPosition=right;points=[];portConstraint=eastwest;" parent="J_tYa9_XuMW0KtjzSe_e-75" vertex="1">
          <mxGeometry y="234" width="339" height="8" as="geometry" />
        </mxCell>
        <mxCell id="J_tYa9_XuMW0KtjzSe_e-84" value="FaceHelper build()" style="text;strokeColor=none;fillColor=none;align=left;verticalAlign=top;spacingLeft=4;spacingRight=4;overflow=hidden;rotatable=0;points=[[0,0.5],[1,0.5]];portConstraint=eastwest;" parent="J_tYa9_XuMW0KtjzSe_e-75" vertex="1">
          <mxGeometry y="242" width="339" height="26" as="geometry" />
        </mxCell>
        <mxCell id="J_tYa9_XuMW0KtjzSe_e-96" value="" style="ellipse;fillColor=#ffffff;strokeColor=#000000;verticalAlign=bottom;" parent="WIyWlLk6GJQsqaUBKTNV-1" vertex="1">
          <mxGeometry x="384" y="850" width="30" height="30" as="geometry" />
        </mxCell>
        <mxCell id="J_tYa9_XuMW0KtjzSe_e-97" value="" style="endArrow=none;html=1;entryX=0.5;entryY=1;entryDx=0;entryDy=0;exitX=0.75;exitY=0;exitDx=0;exitDy=0;" parent="WIyWlLk6GJQsqaUBKTNV-1" target="J_tYa9_XuMW0KtjzSe_e-96" edge="1">
          <mxGeometry width="50" height="50" relative="1" as="geometry">
            <mxPoint x="399.5" y="915" as="sourcePoint" />
            <mxPoint x="497" y="885" as="targetPoint" />
          </mxGeometry>
        </mxCell>
        <mxCell id="J_tYa9_XuMW0KtjzSe_e-98" value="&lt;span&gt;Runnable&lt;/span&gt;" style="text;html=1;strokeColor=none;fillColor=none;align=center;verticalAlign=middle;whiteSpace=wrap;rounded=0;" parent="WIyWlLk6GJQsqaUBKTNV-1" vertex="1">
          <mxGeometry x="380" y="880" width="40" height="20" as="geometry" />
        </mxCell>
        <mxCell id="J_tYa9_XuMW0KtjzSe_e-99" value="" style="endArrow=open;html=1;endSize=12;startArrow=diamondThin;startSize=14;startFill=1;edgeStyle=orthogonalEdgeStyle;align=left;verticalAlign=bottom;entryX=0.484;entryY=0;entryDx=0;entryDy=0;entryPerimeter=0;rounded=0;" parent="WIyWlLk6GJQsqaUBKTNV-1" source="J_tYa9_XuMW0KtjzSe_e-6" target="J_tYa9_XuMW0KtjzSe_e-75" edge="1">
          <mxGeometry x="-1" y="3" relative="1" as="geometry">
            <mxPoint x="639" y="750" as="sourcePoint" />
            <mxPoint x="760" y="800" as="targetPoint" />
            <Array as="points">
              <mxPoint x="530" y="1200" />
              <mxPoint x="364" y="1200" />
            </Array>
          </mxGeometry>
        </mxCell>
        <mxCell id="J_tYa9_XuMW0KtjzSe_e-100" value="" style="endArrow=open;html=1;endSize=12;startArrow=diamondThin;startSize=14;startFill=1;edgeStyle=orthogonalEdgeStyle;align=left;verticalAlign=bottom;entryX=0.5;entryY=0;entryDx=0;entryDy=0;rounded=0;" parent="WIyWlLk6GJQsqaUBKTNV-1" source="J_tYa9_XuMW0KtjzSe_e-6" target="J_tYa9_XuMW0KtjzSe_e-55" edge="1">
          <mxGeometry x="-1" y="3" relative="1" as="geometry">
            <mxPoint x="670" y="800" as="sourcePoint" />
            <mxPoint x="830" y="800" as="targetPoint" />
            <Array as="points">
              <mxPoint x="530" y="780" />
              <mxPoint x="805" y="780" />
            </Array>
          </mxGeometry>
        </mxCell>
        <mxCell id="J_tYa9_XuMW0KtjzSe_e-101" value="" style="endArrow=open;html=1;endSize=12;startArrow=diamondThin;startSize=14;startFill=1;edgeStyle=orthogonalEdgeStyle;align=left;verticalAlign=bottom;entryX=0.5;entryY=0;entryDx=0;entryDy=0;rounded=0;" parent="WIyWlLk6GJQsqaUBKTNV-1" source="J_tYa9_XuMW0KtjzSe_e-6" target="J_tYa9_XuMW0KtjzSe_e-25" edge="1">
          <mxGeometry x="-1" y="3" relative="1" as="geometry">
            <mxPoint x="400" y="830" as="sourcePoint" />
            <mxPoint x="560" y="830" as="targetPoint" />
            <Array as="points">
              <mxPoint x="530" y="780" />
              <mxPoint x="330" y="780" />
            </Array>
          </mxGeometry>
        </mxCell>
        <mxCell id="J_tYa9_XuMW0KtjzSe_e-104" value="人脸特征辅助类建造者" style="shape=note2;boundedLbl=1;whiteSpace=wrap;html=1;size=25;verticalAlign=top;align=center;" parent="WIyWlLk6GJQsqaUBKTNV-1" vertex="1">
          <mxGeometry x="200" y="1155" width="120" height="60" as="geometry" />
        </mxCell>
        <mxCell id="J_tYa9_XuMW0KtjzSe_e-105" value="" style="endArrow=none;dashed=1;html=1;entryX=0.5;entryY=1;entryDx=0;entryDy=0;entryPerimeter=0;" parent="WIyWlLk6GJQsqaUBKTNV-1" target="J_tYa9_XuMW0KtjzSe_e-104" edge="1">
          <mxGeometry width="50" height="50" relative="1" as="geometry">
            <mxPoint x="260" y="1250" as="sourcePoint" />
            <mxPoint x="290" y="1230" as="targetPoint" />
          </mxGeometry>
        </mxCell>
        <mxCell id="J_tYa9_XuMW0KtjzSe_e-106" value="" style="endArrow=none;dashed=1;html=1;entryX=0.5;entryY=1;entryDx=0;entryDy=0;entryPerimeter=0;exitX=0.08;exitY=0;exitDx=0;exitDy=0;exitPerimeter=0;" parent="WIyWlLk6GJQsqaUBKTNV-1" source="J_tYa9_XuMW0KtjzSe_e-6" target="J_tYa9_XuMW0KtjzSe_e-13" edge="1">
          <mxGeometry width="50" height="50" relative="1" as="geometry">
            <mxPoint x="110" y="390" as="sourcePoint" />
            <mxPoint x="160" y="340" as="targetPoint" />
          </mxGeometry>
        </mxCell>
      </root>
    </mxGraphModel>
  </diagram>
</mxfile>
